<svg width="18" height="20" viewBox="0 0 18 20" fill="none" xmlns="http://www.w3.org/2000/svg">
<path d="M6.03937 9.75987L8.23403 11.8512L11.965 8.2959" stroke="#53625A" stroke-width="1.5" stroke-linecap="square"/>
<path d="M0.885009 5.40952C0.895056 5.18476 0.907012 4.99323 0.91808 4.84119L9.00665 0.836875L17.0925 4.83984C17.1024 4.98951 17.1129 5.17719 17.1214 5.39702C17.1449 6.00936 17.1523 6.86712 17.0879 7.84465C16.9577 9.82028 16.5391 12.1958 15.4424 14.037C14.3413 15.8857 12.6824 17.2025 11.2667 18.0642C10.5629 18.4925 9.93016 18.8016 9.47556 19.0028C9.2853 19.087 9.12684 19.1521 9.00813 19.1988C8.88644 19.1505 8.72306 19.083 8.52656 18.9956C8.06372 18.7897 7.42057 18.4749 6.70704 18.0425C5.27041 17.172 3.59807 15.8547 2.50862 14.0355C1.42497 12.2259 1.02046 9.85456 0.902664 7.87038C0.844426 6.8894 0.857435 6.02638 0.885009 5.40952Z" stroke="#53625A" stroke-width="1.5"/>
</svg>
