<svg width="21" height="20" viewBox="0 0 21 20" fill="none" xmlns="http://www.w3.org/2000/svg">
<g clip-path="url(#clip0_1_139)">
<path d="M10.5078 14.292H6.13281C5.96705 14.292 5.80809 14.3578 5.69087 14.4751C5.57366 14.5922 5.50781 14.7512 5.50781 14.917V18.667C5.50781 18.8327 5.57366 18.9917 5.69087 19.1089C5.80809 19.2262 5.96705 19.292 6.13281 19.292H9.88281C10.0486 19.292 10.2076 19.2262 10.3247 19.1089C10.442 18.9917 10.5078 18.8327 10.5078 18.667V14.292Z" stroke="#53625A" stroke-width="1.5" stroke-linecap="round" stroke-linejoin="round"/>
<path d="M14.8828 14.292H10.5078V18.667C10.5078 18.8327 10.5736 18.9917 10.6909 19.1089C10.8081 19.2262 10.9671 19.292 11.1328 19.292H14.8828C15.0486 19.292 15.2076 19.2262 15.3247 19.1089C15.442 18.9917 15.5078 18.8327 15.5078 18.667V14.917C15.5078 14.7512 15.442 14.5922 15.3247 14.4751C15.2076 14.3578 15.0486 14.292 14.8828 14.292Z" stroke="#53625A" stroke-width="1.5" stroke-linecap="round" stroke-linejoin="round"/>
<path d="M12.3828 9.29199H8.63281C8.46705 9.29199 8.30809 9.35783 8.19087 9.47508C8.07366 9.59224 8.00781 9.75124 8.00781 9.91699V14.292H13.0078V9.91699C13.0078 9.75124 12.942 9.59224 12.8247 9.47508C12.7076 9.35783 12.5486 9.29199 12.3828 9.29199Z" stroke="#53625A" stroke-width="1.5" stroke-linecap="round" stroke-linejoin="round"/>
<path d="M19.8828 19.2915V6.29156C19.8829 6.06496 19.8214 5.84258 19.7048 5.64824C19.5883 5.4539 19.4211 5.29489 19.2211 5.18823L11.0961 0.854896C10.9152 0.758453 10.7133 0.708008 10.5082 0.708008C10.3031 0.708008 10.1013 0.758453 9.92031 0.854896L1.79531 5.18823C1.59522 5.29478 1.42786 5.45374 1.31116 5.64809C1.19446 5.84244 1.13281 6.06486 1.13281 6.29156V19.2915" stroke="#53625A" stroke-width="1.5" stroke-linecap="round" stroke-linejoin="round"/>
</g>
<defs>
<clipPath id="clip0_1_139">
<rect width="20" height="20" fill="white" transform="translate(0.5)"/>
</clipPath>
</defs>
</svg>
