<svg width="60" height="60" viewBox="0 0 60 60" fill="none" xmlns="http://www.w3.org/2000/svg">
<path d="M15.8478 31.9156L8.00095 41.5067L15.0536 42.9312L18.2622 51.8893L25.839 39.6392" stroke="#EB6E38" stroke-width="3" stroke-linecap="round" stroke-linejoin="round"/>
<path d="M44.1046 31.7573L51.9991 41.4592L44.5811 43.0261L41.6425 52L33.9386 39.6708" stroke="#EB6E38" stroke-width="3" stroke-linecap="round" stroke-linejoin="round"/>
<path d="M29.9498 40.1932C38.8715 40.1932 46.1041 32.9867 46.1041 24.0971C46.1041 15.2075 38.8715 8.00108 29.9498 8.00108C21.028 8.00108 13.7954 15.2075 13.7954 24.0971C13.7954 32.9867 21.028 40.1932 29.9498 40.1932Z" stroke="#EB6E38" stroke-width="3" stroke-linecap="round" stroke-linejoin="round"/>
<path d="M29.9518 28.9244L35.5907 33.0078L33.5734 26.3605L39.3712 21.9447H32.0485L29.9518 15.1233L27.7916 21.9447H20.4689L26.2667 26.3605L24.3129 33.0078L29.9518 28.9244Z" stroke="#EB6E38" stroke-width="3" stroke-linecap="round" stroke-linejoin="round"/>
</svg>
